# xmcd CD database file
#
# Track frame offsets:
#	150
#	26166
#	48344
#	67282
#	87847
#	111393
#	138202
#	162914
#	193497
#	222169
#	244406
#	270308
#	290300
#
# Disc length: 4526 seconds
#
# Revision: 0
# Processed by: cddbd v1.5.2PL0 Copyright (c) Steve Scherf et al.
# Submitted via: CDex 1.70beta2
#
DISCID=c911ac0d
DTITLE=Nouvelle Cuisine - gDoon
DYEAR=2008
DGENRE=Jazz
TTITLE0=Faast 
TTITLE1=Groo 
TTITLE2=Veco 
TTITLE3=n'Cert 
TTITLE4=auch Fieber 
TTITLE5=und der alte Sven kocht Rüben - Schrecklich
TTITLE6=Nord 
TTITLE7=gDoonDung 
TTITLE8=Nouvelle Crux 
TTITLE9=Saft Song 
TTITLE10=gDoon Broadway 
TTITLE11=Plektrum 
TTITLE12=Cebedeus 
EXTD=YEAR: 2008
EXTT0=
EXTT1=
EXTT2=
EXTT3=
EXTT4=
EXTT5=
EXTT6=
EXTT7=
EXTT8=
EXTT9=
EXTT10=
EXTT11=
EXTT12=
PLAYORDER=
